<svg version="1.1" id="Layer_1" xmlns="http://www.w3.org/2000/svg" xmlns:xlink="http://www.w3.org/1999/xlink" x="0px" y="0px" viewBox="0 0 158.5 63" style="enable-background:new 0 0 158.5 63;" xml:space="preserve">
<style type="text/css">
	.st0{fill:#000;}
	.st2{fill:#000;}
</style>
		<path class="st0" d="M53.9,37.1c-1.1,2.4-1.4,2.7-1.9,1.6c-1.1-2.5-1.8-6.7-2.7-13.9c-1.1-8.5-8.2-2.1-12.3,9.2
			c-2.4,6.4-3,8.5-3.4,8.5c-0.2,0-0.6-0.2-0.8-0.8c-1.4-3.3-2-6.2-4-14.9c-1-4.5-2.9-16.1-3.8-20.7c-0.8-4-2.8-5.9-4.5-6.2
			c-1.1-0.1-2.1,0.1-3.2,0.4c-1,0.3-2,0.9-2.8,1.6C9.6,6.1,6.8,12,4.7,18c-4.2,12.1-5.6,25-4,37.8c0.2,1.7,0.6,3.4,1.3,5
			c0.5,1.1,1,1.8,1.9,2.1c1.3,0.3,2.5-0.6,3.4-1.8c0.8-1.2,1.4-2.5,1.9-3.8c2.9-7.2,5.3-14,8.4-20.8c0.1-0.2,0.2-0.4,0.1-0.6
			c0-0.2-0.1-0.4-0.2-0.6c-0.1-0.2-0.2-0.3-0.4-0.4c-0.2-0.1-0.4-0.1-0.6-0.1c-1.3,0-4.1,0.7-7.6,8C7.2,46.6,7,47,6.7,47
			c-0.2,0-0.4,0.3-0.1-5C7.8,24.1,15,8.9,17,10.3c1.9,1.4,1.7,11.4,5.7,24.7s8,19.5,11.9,18.2c2-0.7,2.7-2.7,3.7-5.3
			c1.7-4.4,3.2-8.9,4.7-12.3c2-4.6,2.1-2.7,2.1-2.9c1,7.1,3.2,15.4,7,14.8c3.4-0.5,4.6-6,6.5-10.7l1.8-4.6c0.2-0.6,0.4-1.2-0.5-1.2
			C58.9,31,56.5,31.6,53.9,37.1"></path>
			<path class="st2" d="M81.4,22.2L70.6,47.3c0,0,0,0,0,0.1c0,0,0,0,0,0.1c0,0,0,0,0,0c0,0,0,0,0.1,0h1.4c0.9,0,1.8-0.3,2.6-0.8
				c0.8-0.5,1.4-1.2,1.7-2.1l0.8-1.9h8c-0.2-1-0.8-2-1.6-2.6c-0.8-0.6-1.9-0.9-3-0.8h-2l1.1-2.9c0.7-1.7,1.8-5,1.8-5s1,3.1,1.8,4.9
				l3.6,8.5c0.4,0.8,1,1.5,1.8,2c0.8,0.5,1.7,0.7,2.6,0.7h1.5c0,0,0,0,0,0c0,0,0,0,0,0c0,0,0,0,0,0c0,0,0,0,0,0L81.7,22.5L81.4,22.2
				z"></path>
			<path class="st2" d="M105.7,24.1v3.6h4.8v-4.8h-3.6c-0.3,0-0.6,0.1-0.9,0.4C105.8,23.4,105.7,23.8,105.7,24.1z"></path>
			<path class="st2" d="M105.7,33.1v14.4c0.7,0,1.3-0.1,1.9-0.4c0.6-0.3,1.1-0.6,1.6-1.1c0.4-0.5,0.8-1,1-1.6
				c0.2-0.6,0.3-1.3,0.3-1.9V28.3H110c-1.2,0.1-2.3,0.7-3.1,1.6C106.2,30.8,105.7,31.9,105.7,33.1z"></path>
			<path class="st2" d="M153.7,24.1v3.6h4.8v-4.8h-3.6c-0.2,0-0.3,0-0.5,0.1c-0.2,0.1-0.3,0.2-0.4,0.3c-0.1,0.1-0.2,0.3-0.3,0.4
				C153.7,23.8,153.7,23.9,153.7,24.1z"></path>
			<path class="st2" d="M153.7,33.1v14.4c0.7,0,1.3-0.1,1.9-0.4c0.6-0.3,1.1-0.6,1.6-1.1c0.4-0.5,0.8-1,1-1.6
				c0.2-0.6,0.3-1.3,0.3-1.9V28.3H158c-1.2,0.1-2.3,0.7-3.1,1.6C154.2,30.8,153.7,31.9,153.7,33.1z"></path>
			<path class="st2" d="M131.5,33.8v-5c0-0.1,0-0.3,0.1-0.4c0.1-0.1,0.1-0.3,0.2-0.4c0.1-0.1,0.2-0.2,0.4-0.2
				c0.1-0.1,0.3-0.1,0.4-0.1h6.4c0.6,0,1.1-0.1,1.7-0.2c0.5-0.2,1-0.5,1.4-0.9c0.4-0.4,0.8-0.9,1-1.4c0.2-0.5,0.4-1.1,0.4-1.7h-11.8
				c-0.6,0-1.3,0-1.9,0.3c-0.6,0.2-1.1,0.6-1.6,1c-0.5,0.4-0.8,1-1,1.6c-0.2,0.6-0.3,1.2-0.3,1.8v19.4c0.6,0,1.2-0.1,1.8-0.3
				c0.6-0.2,1.1-0.6,1.5-1c0.4-0.4,0.7-1,1-1.5c0.2-0.6,0.3-1.2,0.3-1.8v-5.6h5.9c0.5,0,1,0,1.4-0.2c0.5-0.2,0.9-0.4,1.2-0.8
				c0.4-0.3,0.6-0.7,0.8-1.2c0.2-0.4,0.3-0.9,0.3-1.4L131.5,33.8z"></path>
</svg>