<svg width="76" height="24" viewBox="0 0 76 24" fill="none" xmlns="http://www.w3.org/2000/svg">
<path fill-rule="evenodd" clip-rule="evenodd" d="M14.6076 18.8242C14.6076 19.5982 13.9805 20.2253 13.2065 20.2253H11.7799C11.006 20.2253 10.3788 19.5982 10.3788 18.8242V17.6297C10.3788 16.8561 11.006 16.229 11.7799 16.229H13.2065C13.9805 16.229 14.6076 16.8561 14.6076 17.6297V18.8242ZM7.91601 12.5971C7.91601 13.371 7.2885 13.9982 6.5149 13.9982H5.08797C4.31437 13.9982 3.68723 13.371 3.68723 12.5971V11.4029C3.68723 10.629 4.31437 10.0018 5.08797 10.0018H6.5149C7.2885 10.0018 7.91601 10.629 7.91601 11.4029V12.5971ZM7.91601 18.8242C7.91601 19.5982 7.2885 20.2253 6.5149 20.2253H5.08797C4.31437 20.2253 3.68723 19.5982 3.68723 18.8242V17.6297C3.68723 16.8561 4.31437 16.229 5.08797 16.229H6.5149C7.2885 16.229 7.91601 16.8561 7.91601 17.6297V18.8242ZM19.6115 13.4913C18.9714 12.5432 18.1827 11.863 17.246 11.4516C17.954 11.086 18.6003 10.5032 19.1832 9.703C19.7661 8.90321 20.0575 7.95438 20.0575 6.85725C20.0575 4.66299 19.3484 2.97155 17.9315 1.78293C16.5141 0.594679 14.3542 0 11.4516 0H0.857341C0.605377 0 0.399895 0.0855865 0.240159 0.257128C0.0800529 0.42867 0 0.640054 0 0.89128V23.143C0 23.3717 0.0859554 23.5713 0.257128 23.7429C0.42867 23.9144 0.628618 24 0.857341 24H11.76C14.594 24 16.7713 23.3603 18.2915 22.0802C19.8114 20.8001 20.5717 19.0061 20.5717 16.6971C20.5717 15.5089 20.2512 14.4401 19.6115 13.4913Z" fill="#0D28F2"/>
<path fill-rule="evenodd" clip-rule="evenodd" d="M45.8006 16.5843C47.1641 16.5843 48.4036 15.5572 48.4036 13.6976C48.4036 11.8383 47.1641 10.8113 45.8006 10.8113C44.4726 10.8113 43.2153 11.8029 43.2153 13.6625C43.2153 15.5218 44.4726 16.5843 45.8006 16.5843ZM50.9 8.79222H50.9008V18.6033H50.8901C50.8657 18.6941 50.7864 18.7627 50.6883 18.7627H48.6161C48.518 18.7627 48.4387 18.6941 48.4143 18.6033H48.4036V17.1686C47.8193 18.019 46.7037 18.7627 45.1458 18.7627C42.666 18.7627 40.6828 16.7259 40.6828 13.6625C40.6828 10.5988 42.666 8.63285 45.1632 8.63285C46.7391 8.63285 47.8193 9.37657 48.4036 10.1915V8.79222H48.4044C48.4066 8.67749 48.5007 8.58379 48.6161 8.58379H50.6883C50.8038 8.58379 50.8978 8.67749 50.9 8.79222ZM55.4331 11.5372C55.4331 13.3261 60.8697 12.2101 60.9409 15.8051C60.9409 17.4873 59.4708 18.7626 57.0803 18.7626C54.6215 18.7626 52.9054 17.3317 52.7955 15.5104C52.7955 15.5092 52.7947 15.5081 52.7947 15.5067C52.7947 15.5067 52.7947 15.5063 52.7947 15.5059C52.7947 15.5052 52.7947 15.5048 52.7947 15.5041H52.7951C52.7969 15.3886 52.891 15.2945 53.0068 15.2945H55.0794C55.1952 15.2945 55.2893 15.3886 55.2911 15.5041H55.2915C55.38 16.2478 56.071 16.8144 57.0626 16.8144C58.0365 16.8144 58.5677 16.3718 58.5677 15.8051C58.5677 14.0521 53.0249 15.1676 53.0249 11.5726C53.0249 9.94354 54.4769 8.63282 56.9029 8.63282C59.2749 8.63282 60.7092 9.92473 60.852 11.8711C60.852 11.8718 60.852 11.8722 60.852 11.8726C60.852 11.8729 60.852 11.8729 60.852 11.8729V11.8737C60.8513 11.9899 60.7565 12.0851 60.6399 12.0851H58.695C58.5788 12.0851 58.4836 11.9899 58.4833 11.8737H58.4792C58.4084 11.1122 57.8063 10.5987 56.8324 10.5987C55.9116 10.5987 55.4331 10.9706 55.4331 11.5372ZM64.2339 7.62352C63.3486 7.62352 62.7107 6.98605 62.7107 6.1715C62.7107 5.35659 63.3486 4.71912 64.2339 4.71912C65.102 4.71912 65.7568 5.35659 65.7568 6.1715C65.7568 6.98605 65.102 7.62352 64.2339 7.62352ZM65.2437 8.5801C65.3606 8.5801 65.4558 8.67565 65.4558 8.79222V18.6033H65.4451C65.4211 18.6941 65.3418 18.7627 65.2437 18.7627H63.1889C63.0907 18.7627 63.0114 18.6941 62.9874 18.6033H62.9767V8.79222C62.9767 8.67565 63.0723 8.5801 63.1889 8.5801H65.2437ZM70.0064 11.5372C70.0064 13.3261 75.443 12.2101 75.5142 15.8051C75.5142 17.4873 74.0441 18.7626 71.6536 18.7626C69.1919 18.7626 67.4742 17.3283 67.368 15.5041H67.3684C67.3684 15.503 67.368 15.5022 67.368 15.5015C67.368 15.3846 67.4635 15.289 67.5801 15.289H69.6526C69.7692 15.289 69.8648 15.3846 69.8648 15.5015C69.8648 15.5022 69.8644 15.503 69.8644 15.5041H69.8648C69.9533 16.2478 70.6443 16.8144 71.6359 16.8144C72.6098 16.8144 73.141 16.3718 73.141 15.8051C73.141 14.0521 67.5982 15.1676 67.5982 11.5726C67.5982 9.94354 69.0502 8.63282 71.4761 8.63282C73.8482 8.63282 75.2825 9.92473 75.4253 11.8711C75.4253 11.8718 75.4253 11.8722 75.4253 11.8726C75.4253 11.8729 75.4253 11.8729 75.4253 11.8729V11.8737C75.4246 11.9899 75.3297 12.0851 75.2132 12.0851H73.2661C73.1495 12.0851 73.0547 11.9899 73.054 11.8737H73.0525C72.9817 11.1122 72.3796 10.5987 71.4057 10.5987C70.4849 10.5987 70.0064 10.9706 70.0064 11.5372ZM34.3797 16.5843C35.7254 16.5843 36.983 15.5218 36.983 13.6625C36.983 11.8029 35.7254 10.8113 34.3797 10.8113C33.0512 10.8113 31.794 11.8383 31.794 13.6976C31.794 15.5572 33.0512 16.5843 34.3797 16.5843ZM35.0348 8.63285C37.5497 8.63285 39.5152 10.5988 39.5152 13.6625C39.5152 16.7259 37.5497 18.7627 35.0348 18.7627C33.4943 18.7627 32.3964 18.054 31.794 17.204V18.6033H31.7833C31.7593 18.6941 31.68 18.7627 31.5819 18.7627H29.5271C29.4293 18.7627 29.3496 18.6941 29.3256 18.6033H29.3149V5.49862C29.3149 5.38167 29.4105 5.28613 29.5271 5.28613H31.5819C31.6985 5.28613 31.794 5.38167 31.794 5.49862V10.2269C32.3964 9.32345 33.5474 8.63285 35.0348 8.63285Z" fill="#0D28F2"/>
</svg>
