<svg width="183" height="74" viewBox="0 0 183 74" fill="none" xmlns="http://www.w3.org/2000/svg">
<path d="M168.576 41.8868C169.287 39.3042 170.733 37.6772 173.47 37.6772C175.704 37.6772 176.75 39.5754 176.556 41.8868H168.576ZM161.616 45.9285C161.616 52.0104 165.723 54.9674 171.353 54.9674C176.285 54.9674 180.392 53.0563 181.993 48.1236H175.536C175.033 49.5182 173.935 50.3963 171.663 50.3963C171.202 50.446 170.737 50.397 170.297 50.2525C169.858 50.1081 169.454 49.8716 169.113 49.5587C168.772 49.2459 168.502 48.8639 168.32 48.4383C168.139 48.0127 168.05 47.5532 168.06 47.0906C168.058 46.6289 168.084 46.1676 168.137 45.709H182.767C182.925 44.5362 183.002 43.3541 183 42.1708C183 36.2181 178.971 33.1319 173.729 33.1319C166.381 33.1319 161.642 38.6457 161.642 45.9543L161.616 45.9285ZM149.052 33.7259H142.299L144.804 54.3863H152.552L163.502 33.7259H156.542L149.93 48.2657H149.853L149.052 33.7259ZM134.461 31.1433H141.111L142.17 25.9782H135.52L134.461 31.1433ZM133.918 33.7259L129.696 54.3863H136.346L140.569 33.7259H133.918ZM117.648 33.7259L113.426 54.3863H120.089L122.052 44.9342C122.71 41.4477 124.118 39.0976 127.759 39.0976C128.776 39.0925 129.788 39.2272 130.768 39.4979L132.059 33.5451C131.353 33.2498 130.588 33.1259 129.825 33.1836C128.505 33.209 127.217 33.5909 126.096 34.2887C124.975 34.9866 124.064 35.9744 123.459 37.1478H123.382L124.118 33.7775L117.648 33.7259ZM93.4111 47.9299L96.6522 32.2797H100.836C104.193 32.2797 106.35 33.9067 106.35 38.5165C106.35 42.2096 104.516 47.9299 98.2146 47.9299H93.4111ZM90.7123 25.9782L84.7982 54.3863H97.272C108.312 54.3089 113.632 46.8065 113.632 37.9484C113.632 29.0902 108.351 25.9524 101.197 25.9524L90.7123 25.9782ZM71.0203 38.0646H74.3776L72.8152 45.5153C72.3662 47.2954 72.1022 49.1172 72.0275 50.9515C72.0275 54.0893 75.2299 54.5284 78.3289 54.5284C79.6202 54.5284 80.9115 54.3605 82.2028 54.283L83.2229 49.247C82.5256 49.247 81.8541 49.3633 81.1568 49.3633C80.0205 49.3633 79.0779 49.2858 79.0779 48.2915C79.1128 47.4599 79.2296 46.6338 79.4265 45.8252L81.0406 38.0775H85.2244L86.1153 33.713H81.9574L83.2487 27.5148H76.5599L75.2686 33.713H71.9113L71.0203 38.0646ZM55.9123 47.5555H49.8175C50.0112 52.9272 53.3298 54.9158 58.4949 54.9158C63.2726 54.9158 68.9026 53.7536 68.9026 47.4393C68.9026 43.3976 66.7462 42.5195 62.9885 41.5639C60.6126 40.97 58.4562 40.6859 58.4562 39.2138C58.4562 37.7418 60.0961 37.2769 61.4648 37.2769C61.829 37.2553 62.1938 37.307 62.5376 37.429C62.8814 37.551 63.1972 37.7408 63.4663 37.9871C63.8625 38.4965 64.0433 39.1408 63.9699 39.782H70.0002C70.2714 34.5007 65.8552 33.1061 61.6198 33.1061C57.3844 33.1061 51.8061 34.5781 51.8061 40.0919C51.8061 43.9657 54.3886 45.0633 57.3973 45.7348C60.6513 46.5612 62.2525 46.6516 62.2525 48.4335C62.2525 50.2155 60.4189 50.5383 59.2826 50.5383C58.346 50.5993 57.4218 50.2989 56.7 49.699C56.4352 49.412 56.232 49.0736 56.1032 48.7049C55.9744 48.3362 55.9226 47.945 55.9511 47.5555H55.9123ZM34.645 41.8868C35.3423 39.3042 36.7885 37.6772 39.526 37.6772C41.7599 37.6772 42.8188 39.5754 42.6251 41.8868H34.645ZM27.685 45.9285C27.685 52.0104 31.7913 54.9674 37.4212 54.9674C42.341 54.9674 46.4602 53.0563 48.0614 48.1236H41.605C41.1014 49.5182 40.0038 50.3963 37.7311 50.3963C37.2715 50.4438 36.807 50.3933 36.3683 50.2481C35.9296 50.1029 35.5267 49.8663 35.1862 49.5539C34.8457 49.2414 34.5754 48.8603 34.3931 48.4357C34.2107 48.0111 34.1205 47.5527 34.1285 47.0906C34.1298 46.6286 34.16 46.1672 34.2189 45.709H48.7974C48.9698 44.52 49.0604 43.3206 49.0686 42.1192C49.0686 36.1664 45.0398 33.0802 39.8101 33.0802C32.4498 33.0802 27.7237 38.594 27.7237 45.9026L27.685 45.9285ZM16.6187 31.6986C18.1812 31.6986 20.286 31.8664 20.286 33.9196C20.286 35.9727 18.8397 37.0703 15.9085 37.0703H10.7434L11.841 31.6986H16.6187ZM9.73624 42.0288H14.9014C16.7866 42.0288 19.1367 42.2225 19.1367 44.8438C19.1367 47.9041 16.7091 48.4594 14.1653 48.4594H8.36748L9.73624 42.0288ZM18.8397 25.9007H5.78493L0 54.3089H13.6101C21.7839 54.3089 26.3162 50.5383 26.3162 44.7792C26.3736 43.5436 26.0156 42.3243 25.2995 41.3157C24.5834 40.3071 23.5504 39.5671 22.3649 39.2138V39.1363C25.5673 38.4261 27.53 35.8823 27.53 32.1505C27.53 29.0515 26.355 25.9524 18.801 25.9524L18.8397 25.9007ZM181.295 33.0286V32.9382C168.163 21.2392 141.757 16.1516 140.646 15.9321L132.408 14.5246C130.445 13.1042 116.912 3.66493 104 1.22442C92.5846 -0.906191 76.8181 0.798296 70.0906 1.53432C68.696 1.67637 67.6113 1.79258 67.1335 1.8184C64.1894 1.94753 34.8516 11.9291 31.5459 13.0654L30.4613 13.3624C23.9365 15.5512 17.2656 17.2772 10.4981 18.5275H10.3302L10.1882 18.605C9.9041 18.7341 8.0834 19.7413 6.41765 23.3698H9.03895C9.51594 22.3736 10.2032 21.4925 11.0533 20.7873C17.8475 19.5425 24.5446 17.8165 31.094 15.6222L32.1657 15.3252C44.7299 11.1156 65.2354 4.3364 67.1465 4.19436C67.6888 4.19436 68.7089 4.06523 70.2455 3.89736C76.8827 3.17425 92.4039 1.5085 103.47 3.57454C116.719 6.04089 131.039 16.4873 131.181 16.6035L131.413 16.7714L140.297 18.3984C140.504 18.3984 159.305 22.0656 172.799 29.8908C175.788 30.4824 178.659 31.5645 181.295 33.0932" fill="#F7A600"/>
<path d="M0 61.6927H1.49619V65.1576C1.71963 64.8309 2.01917 64.5634 2.36899 64.3782C2.71881 64.193 3.10842 64.0956 3.50423 64.0945C5.64352 64.0945 6.68035 65.7088 6.68035 67.7037C6.68035 69.6987 5.81414 71.1949 3.81922 71.1949C3.36394 71.2515 2.90197 71.1765 2.48797 70.9788C2.07397 70.7811 1.72525 70.4689 1.48306 70.0793V70.0793V71.0111H0V61.6927ZM3.33362 65.2757C2.08679 65.2757 1.44369 66.2207 1.44369 67.6775C1.44369 69.1343 2.13929 70.0662 3.33362 70.0662C4.52794 70.0662 5.24979 68.8587 5.24979 67.6775C5.24979 66.4963 4.60669 65.2757 3.37299 65.2757H3.33362Z" fill="white"/>
<path d="M7.20531 64.2782H8.84587L10.6045 69.3442L12.3238 64.2782H13.9119L11.287 71.431C10.8014 72.6516 10.4995 73.8197 8.88524 73.8197C8.53812 73.82 8.19149 73.7937 7.84841 73.7409V72.4285C8.08174 72.4784 8.31878 72.5091 8.55713 72.5204C9.2396 72.5204 9.43647 72.1529 9.60708 71.5754L9.7777 71.0504L7.20531 64.2782Z" fill="white"/>
<path d="M24.8052 64.6326C24.7153 64.088 24.4268 63.5961 23.9953 63.2518C23.5638 62.9076 23.02 62.7356 22.4691 62.7689C20.461 62.8083 19.6867 64.6326 19.6867 66.3781C19.6867 68.1237 20.5135 69.948 22.5216 69.948C22.8398 69.9446 23.1543 69.8783 23.4468 69.7529C23.7394 69.6276 24.0042 69.4456 24.2262 69.2175C24.4482 68.9895 24.6229 68.7197 24.7403 68.4239C24.8577 68.1281 24.9154 67.8119 24.9102 67.4937H26.5114C26.5046 68.0021 26.3971 68.5041 26.195 68.9706C25.9929 69.4372 25.7004 69.859 25.3342 70.2118C24.968 70.5645 24.5356 70.8411 24.0618 71.0257C23.588 71.2102 23.0824 71.2989 22.5741 71.2867C21.3598 71.1609 20.2352 70.5896 19.4176 69.683C18.6001 68.7764 18.1476 67.5989 18.1476 66.3781C18.1476 65.1574 18.6001 63.9799 19.4176 63.0733C20.2352 62.1667 21.3598 61.5953 22.5741 61.4696C23.5177 61.3879 24.456 61.6764 25.1908 62.274C25.9255 62.8716 26.3991 63.7315 26.5114 64.672L24.8052 64.6326Z" fill="white"/>
<path d="M27.3776 67.6643C27.3983 66.9911 27.6169 66.339 28.0062 65.7894C28.3955 65.2398 28.9382 64.8171 29.5664 64.5743C30.1947 64.3314 30.8805 64.2792 31.5383 64.424C32.196 64.5689 32.7965 64.9045 33.2646 65.3887C33.7326 65.873 34.0476 66.4845 34.17 67.1468C34.2924 67.8091 34.2168 68.4928 33.9527 69.1124C33.6887 69.732 33.2478 70.26 32.6853 70.6304C32.1228 71.0008 31.4635 71.1971 30.79 71.1948C30.3264 71.2148 29.8638 71.1361 29.4329 70.9641C29.0019 70.7921 28.6123 70.5307 28.2898 70.197C27.9673 69.8634 27.7193 69.4651 27.562 69.0285C27.4048 68.592 27.3419 68.127 27.3776 67.6643V67.6643ZM32.7193 67.6643C32.7193 66.4963 32.1287 65.2757 30.79 65.2757C29.4513 65.2757 28.8738 66.4963 28.8738 67.6643C28.8738 68.8324 29.4644 70.0661 30.8031 70.0661C32.1418 70.0661 32.7193 68.8455 32.7193 67.6643Z" fill="white"/>
<path d="M35.4361 64.2782H36.8404V65.2757C37.0562 64.9072 37.3649 64.6017 37.7357 64.3899C38.1065 64.178 38.5264 64.0671 38.9534 64.0682C39.2705 64.0278 39.5926 64.0589 39.8961 64.1593C40.1996 64.2597 40.4767 64.4268 40.7071 64.6484C40.9375 64.87 41.1153 65.1404 41.2275 65.4397C41.3396 65.739 41.3833 66.0597 41.3552 66.3781V71.0636H39.859V66.7981C39.859 65.735 39.4259 65.2757 38.5466 65.2757C38.319 65.2768 38.0941 65.3248 37.886 65.4168C37.6778 65.5088 37.4909 65.6427 37.3369 65.8103C37.183 65.9778 37.0652 66.1754 36.991 66.3905C36.9169 66.6056 36.8879 66.8338 36.906 67.0606V71.0636H35.4361V64.2782Z" fill="white"/>
<path d="M42.1951 64.2782H43.3107V62.2439H44.8069V64.2782H46.1194V65.3938H44.8069V69.0161C44.8069 69.633 44.8069 69.948 45.5288 69.948C45.738 69.9733 45.9495 69.9733 46.1587 69.948V71.1029C45.8369 71.1487 45.5125 71.175 45.1875 71.1817C43.6126 71.1817 43.3501 70.5779 43.3107 69.4492V65.5119H42.1951V64.2782Z" fill="white"/>
<path d="M47.2481 61.6927H48.7311V63.1102H47.2481V61.6927ZM47.2481 64.3176H48.7311V71.0636H47.2481V64.3176Z" fill="white"/>
<path d="M50.2798 64.2782H51.6842V65.2757C51.9044 64.9101 52.2166 64.6087 52.5897 64.4014C52.9627 64.1942 53.3836 64.0883 53.8103 64.0945C54.1274 64.054 54.4495 64.0851 54.753 64.1855C55.0565 64.2859 55.3336 64.4531 55.564 64.6747C55.7944 64.8962 55.9722 65.1666 56.0844 65.466C56.1965 65.7653 56.2402 66.086 56.2121 66.4044V71.0636H54.729V66.7981C54.729 65.735 54.2959 65.2757 53.4166 65.2757C53.189 65.2768 52.9641 65.3248 52.756 65.4168C52.5479 65.5088 52.361 65.6427 52.207 65.8103C52.053 65.9778 51.9352 66.1754 51.8611 66.3905C51.7869 66.6056 51.758 66.8338 51.776 67.0606V71.0636H50.2798V64.2782Z" fill="white"/>
<path d="M58.9026 68.0581C58.8747 68.313 58.9013 68.571 58.9806 68.8149C59.0598 69.0588 59.19 69.2831 59.3625 69.473C59.535 69.6628 59.7458 69.8138 59.981 69.9161C60.2162 70.0183 60.4705 70.0695 60.7269 70.0661C61.0911 70.1015 61.4562 70.0079 61.7584 69.8016C62.0606 69.5953 62.2808 69.2894 62.3806 68.9374H63.798C63.6329 69.6145 63.2346 70.2119 62.6731 70.6247C62.1115 71.0375 61.4225 71.2393 60.7269 71.1948C60.2638 71.215 59.8018 71.1344 59.3728 70.9586C58.9439 70.7828 58.5582 70.516 58.2425 70.1765C57.9267 69.8371 57.6885 69.4331 57.5441 68.9926C57.3998 68.552 57.3528 68.0854 57.4064 67.6249C57.3665 67.1561 57.4278 66.6841 57.5864 66.241C57.7449 65.7979 57.9969 65.3942 58.3252 65.0571C58.6535 64.7199 59.0505 64.4574 59.4893 64.2873C59.928 64.1171 60.3982 64.0433 60.868 64.0709C61.3377 64.0985 61.7961 64.2268 62.2119 64.4471C62.6277 64.6674 62.9913 64.9746 63.2779 65.3478C63.5645 65.721 63.7675 66.1515 63.8731 66.6101C63.9787 67.0687 63.9845 67.5446 63.8899 68.0056L58.9026 68.0581ZM62.3937 67.0737C62.3937 66.6108 62.2098 66.1668 61.8825 65.8394C61.5551 65.5121 61.1111 65.3282 60.6482 65.3282C60.1852 65.3282 59.7412 65.5121 59.4139 65.8394C59.0865 66.1668 58.9026 66.6108 58.9026 67.0737H62.3937Z" fill="white"/>
<path d="M64.9661 64.2783H66.3836V65.2757C66.5994 64.9072 66.9081 64.6018 67.2789 64.3899C67.6497 64.178 68.0696 64.0671 68.4966 64.0683C68.8141 64.0314 69.1357 64.0662 69.438 64.17C69.7403 64.2737 70.0154 64.4439 70.2433 64.668C70.4712 64.8921 70.6459 65.1644 70.7547 65.4649C70.8636 65.7654 70.9037 66.0864 70.8721 66.4044V71.0636H69.4284V66.7982C69.4284 65.7351 68.9953 65.2757 68.116 65.2757C67.8884 65.2768 67.6636 65.3249 67.4554 65.4169C67.2473 65.5089 67.0604 65.6428 66.9064 65.8103C66.7524 65.9779 66.6346 66.1754 66.5605 66.3906C66.4863 66.6057 66.4574 66.8338 66.4754 67.0607V71.0636H64.9661V64.2783Z" fill="white"/>
<path d="M71.7646 64.2782H72.8802V62.2439H74.3764V64.2782H75.6888V65.3938H74.3764V69.0161C74.3764 69.633 74.3764 69.948 75.0982 69.948C75.3074 69.9733 75.5189 69.9733 75.7282 69.948V71.1029C75.4239 71.151 75.1172 71.1817 74.8095 71.1948C73.2345 71.1948 72.972 70.5911 72.9327 69.4624V65.525H71.8171L71.7646 64.2782Z" fill="white"/>
<path d="M82.4217 69.5542C82.4217 69.9217 82.5005 70.0661 82.7761 70.0661H82.9336H83.1435V71.1029C82.8372 71.2 82.5196 71.2573 82.1986 71.2735C81.5817 71.2735 81.1618 71.0635 81.0436 70.4467C80.392 70.9624 79.5772 71.2278 78.7469 71.1948C78.4616 71.2315 78.1718 71.2082 77.8961 71.1262C77.6204 71.0442 77.3649 70.9054 77.1461 70.7187C76.9273 70.5321 76.75 70.3016 76.6256 70.0423C76.5012 69.783 76.4325 69.5005 76.4238 69.213C76.4238 67.5199 77.7363 67.2443 79.0487 67.0999C80.3612 66.9556 81.083 67.0999 81.083 66.1418C81.083 65.1838 80.2693 65.2231 79.6787 65.2231C78.8387 65.2231 78.2481 65.5644 78.1825 66.2993H76.6207C76.7257 64.5538 78.1956 64.0419 79.7049 64.0419C81.2143 64.0419 82.4217 64.58 82.4217 66.0106V69.5542ZM80.9255 67.6643C80.3426 67.9095 79.7201 68.0473 79.0881 68.0711C78.445 68.1761 77.8675 68.4124 77.8675 69.1998C77.8675 69.9873 78.7206 70.0661 79.18 70.0661C79.6393 70.0661 80.8599 69.7248 80.8599 68.7536L80.9255 67.6643Z" fill="white"/>
<path d="M83.9966 61.6927H85.4796V71.0636H83.9966V61.6927Z" fill="white"/>
</svg>
