<svg xmlns="http://www.w3.org/2000/svg" viewBox="0 0 198.43 60.43"><defs><style>.cls-1{fill:#000;}.cls-2{fill:#000;}</style></defs><title>logo-light</title><g id="Layer_2" data-name="Layer 2"><g id="Layer_1-2" data-name="Layer 1"><g id="Layer_2-2" data-name="Layer 2"><g id="Layer_1-2-2" data-name="Layer 1-2"><path class="cls-1" d="M69,41.53H67.9V40.1H69Zm0,10.12H67.91v-8.3H69Z"/><path class="cls-1" d="M77.47,51.65H76.34V44.37l-2.5.07v7.22H72.71v-8.3h1.13v.23l1.34-.18a12.26,12.26,0,0,1,1.35-.1.83.83,0,0,1,1,.69,1,1,0,0,1,0,.24Z"/><path class="cls-1" d="M84,51.65H82.43a.85.85,0,0,1-1-.67.92.92,0,0,1,0-.33v-6.3h-1v-1h1V40.77h1.12v2.58H84v1H82.59v6.3H84Z"/><path class="cls-1" d="M91.88,50.69a.85.85,0,0,1-.67,1,.92.92,0,0,1-.33,0H88.19a.85.85,0,0,1-1-.67.91.91,0,0,1,0-.33V44.31a.85.85,0,0,1,.67-1,.91.91,0,0,1,.33,0h2.73a.85.85,0,0,1,1,.67.92.92,0,0,1,0,.33v3l-.38.4h-3.2v3h2.44V49.18h1.1Zm-1.1-6.39H88.34v2.5h2.44Z"/><path class="cls-1" d="M99.84,46.08H98.72V44.37l-2.09.07v7.22H95.5v-8.3h1.13v.23l1.13-.18a8.47,8.47,0,0,1,1.13-.1.84.84,0,0,1,.94.7.88.88,0,0,1,0,.23Z"/><path class="cls-1" d="M107.8,51.65h-1.13V44.37l-2.5.07v7.22H103v-8.3h1.13v.23l1.34-.18a12.26,12.26,0,0,1,1.35-.1.83.83,0,0,1,1,.69,1,1,0,0,1,0,.24Z"/><path class="cls-1" d="M116,50.69a.85.85,0,0,1-.67,1,.92.92,0,0,1-.33,0h-2.73a.85.85,0,0,1-1-.67.91.91,0,0,1,0-.33V44.31a.85.85,0,0,1,.67-1,.92.92,0,0,1,.33,0H115a.85.85,0,0,1,1,.67.92.92,0,0,1,0,.33v3l-.38.4h-3.16v3h2.44V49.18H116Zm-1.1-6.39h-2.44v2.5h2.44Z"/><path class="cls-1" d="M122.62,51.65H121a.85.85,0,0,1-1-.67.92.92,0,0,1,0-.33v-6.3h-1v-1h1V40.77h1.12v2.58h1.45v1h-1.45v6.3h1.45Z"/><path class="cls-1" d="M130.59,50.69a.85.85,0,0,1-.67,1,.91.91,0,0,1-.33,0h-2.85a.85.85,0,0,1-1-.67.91.91,0,0,1,0-.33V44.31a.85.85,0,0,1,.67-1,.91.91,0,0,1,.33,0h2.85a.85.85,0,0,1,1,.67.91.91,0,0,1,0,.33Zm-1.14-6.34H127v6.3h2.5Z"/><polygon class="cls-1" points="138.86 43.35 136.81 51.67 135.77 51.67 133.71 43.35 134.88 43.35 136.29 49.88 137.73 43.35 138.86 43.35"/><path class="cls-1" d="M146.69,51.65h-1.12v-.23l-1.35.18a11.9,11.9,0,0,1-1.34.1A.83.83,0,0,1,142,51a.88.88,0,0,1,0-.23v-3a.85.85,0,0,1,.67-1,.91.91,0,0,1,.33,0h2.67V44.3h-2.44v1.42h-1.1v-1.4a.85.85,0,0,1,.67-1,.92.92,0,0,1,.33,0h2.73a.85.85,0,0,1,1,.67.92.92,0,0,1,0,.33Zm-1.1-1v-3h-2.53v3Zm.63-10-2.09,2h-.79v0l1.28-2h1.6Z"/><path class="cls-1" d="M159.8,46.08h-1.12V44.37l-2.09.07v7.22h-1.13v-8.3h1.13v.23l1.13-.18a8.47,8.47,0,0,1,1.13-.1.84.84,0,0,1,.94.7.88.88,0,0,1,0,.23Z"/><path class="cls-1" d="M167.63,50.69a.85.85,0,0,1-.67,1,.91.91,0,0,1-.33,0H163.9a.85.85,0,0,1-1-.67.91.91,0,0,1,0-.33V44.31a.85.85,0,0,1,.67-1,.91.91,0,0,1,.33,0h2.73a.85.85,0,0,1,1,.67.91.91,0,0,1,0,.33v3l-.38.4h-3.16v3h2.44V49.18h1.1Zm-1.1-6.39h-2.44v2.5h2.44Z"/><path class="cls-1" d="M175.73,50.69a.85.85,0,0,1-.67,1,.92.92,0,0,1-.33,0h-2.6a.85.85,0,0,1-1-.67.91.91,0,0,1,0-.33V48.8h1.12v1.87h2.29V49l-3-2.43a1.07,1.07,0,0,1-.43-.89V44.31a.85.85,0,0,1,.67-1,.92.92,0,0,1,.33,0h2.57a.85.85,0,0,1,1,.67.92.92,0,0,1,0,.33V46h-1.1V44.33h-2.29v1.45l3,2.43a1.09,1.09,0,0,1,.42.9Zm-.2-10-1.72,2h-.66l-1.73-2v0h.73l1.35,1,1.34-1h.7Z"/><path class="cls-1" d="M183.91,50.69a.85.85,0,0,1-.67,1,.91.91,0,0,1-.33,0h-2.73a.85.85,0,0,1-1-.67.91.91,0,0,1,0-.33V44.31a.85.85,0,0,1,.67-1,.91.91,0,0,1,.33,0H183a.85.85,0,0,1,1,.67.92.92,0,0,1,0,.33v3l-.38.4h-3.16v3h2.44V49.18H184Zm-1.1-6.39h-2.44v2.5h2.44Z"/><path class="cls-1" d="M192.3,51.65h-1.13V44.37l-2.5.07v7.22h-1.13v-8.3h1.13v.23L190,43.4a12.26,12.26,0,0,1,1.35-.1.83.83,0,0,1,1,.69,1,1,0,0,1,0,.24Z"/><path class="cls-1" d="M198.43,40.65l-2.09,2h-.79v0l1.28-2h1.6Zm-1.36,11H196v-8.3h1.12Z"/><polygon class="cls-1" points="159.63 40.66 157.91 42.62 157.25 42.62 155.52 40.66 155.52 40.61 156.25 40.61 157.6 41.62 158.94 40.61 159.63 40.61 159.63 40.66"/><path class="cls-1" d="M79.91,33.79a2.32,2.32,0,0,1-2,2.63,2.51,2.51,0,0,1-.67,0h-7.1a2.32,2.32,0,0,1-2.63-2,2.51,2.51,0,0,1,0-.67V28.64h3v5.1h6.26V29.23l-8.1-6.63a3,3,0,0,1-1.16-2.42V16.4a2.32,2.32,0,0,1,2-2.63,2.51,2.51,0,0,1,.67,0h7a2.32,2.32,0,0,1,2.63,2,2.51,2.51,0,0,1,0,.67v4.51h-3V16.45H70.6v4L78.77,27a3,3,0,0,1,1.14,2.47Z"/><path class="cls-1" d="M97.83,33.79a2.32,2.32,0,0,1-2,2.63,2.51,2.51,0,0,1-.67,0H87.42a2.31,2.31,0,0,1-2.6-2,2.43,2.43,0,0,1,0-.66V16.4a2.31,2.31,0,0,1,1.94-2.63,2.43,2.43,0,0,1,.66,0H95.2a2.32,2.32,0,0,1,2.63,2,2.51,2.51,0,0,1,0,.67ZM94.73,16.5H87.91V33.7h6.82Z"/><rect class="cls-1" x="103.06" width="3.05" height="36.42"/><path class="cls-1" d="M124.33,36.42h-3v-.63l-3.7.49a30.56,30.56,0,0,1-3.7.28,2.22,2.22,0,0,1-2.56-1.82,2.3,2.3,0,0,1,0-.74V13.78h3V33.65l6.87-.19V13.78h3Z"/><path class="cls-1" d="M137.52,36.42h-4.4a2.31,2.31,0,0,1-2.6-2,2.43,2.43,0,0,1,0-.66V16.5H127.8V13.78h2.72V6.72h3v7.05h4V16.5h-4V33.69h4Z"/><path class="cls-1" d="M144.76,8.82h-3.14V4.91h3.14Zm0,27.6h-3V13.78h3Z"/><path class="cls-1" d="M163,33.79a2.32,2.32,0,0,1-2,2.63,2.51,2.51,0,0,1-.67,0H152.6a2.31,2.31,0,0,1-2.6-2,2.43,2.43,0,0,1,0-.66V16.4a2.31,2.31,0,0,1,1.94-2.63,2.51,2.51,0,0,1,.67,0h7.77a2.31,2.31,0,0,1,2.62,2,2.43,2.43,0,0,1,0,.66ZM159.9,16.5h-6.82V33.7h6.82Z"/><path class="cls-1" d="M181,36.42h-3.09V16.54l-6.82.19V36.42H168V13.78h3.1v.63l3.65-.49a30.23,30.23,0,0,1,3.68-.28A2.27,2.27,0,0,1,181,15.55a2.15,2.15,0,0,1,0,.62Z"/><path class="cls-1" d="M198.23,33.79a2.32,2.32,0,0,1-2,2.63,2.51,2.51,0,0,1-.67,0h-7.1a2.32,2.32,0,0,1-2.63-2,2.51,2.51,0,0,1,0-.67V28.64h3v5.1h6.26V29.23L187,22.6a3,3,0,0,1-1.16-2.42V16.4a2.32,2.32,0,0,1,2-2.63,2.51,2.51,0,0,1,.67,0h7a2.32,2.32,0,0,1,2.63,2,2.51,2.51,0,0,1,0,.67v4.51h-3V16.45h-6.26v4L197.09,27a3,3,0,0,1,1.14,2.47Z"/><path class="cls-2" d="M11.3,32.4a21.41,21.41,0,0,1,8-11Q26,16.45,32.38,17.92a8.08,8.08,0,0,1,5,2.93,5.78,5.78,0,0,1,1,5c-.56,2.46-2.39,4.41-5.47,5.82A37.85,37.85,0,0,1,21.33,34.3c-.49.08-1,.13-1.5.19A7.42,7.42,0,0,0,25.67,43a9.69,9.69,0,0,0,4.84-.24C38.61,40.48,47.09,32,54.39,24.6A27.77,27.77,0,0,0,0,31.29,47.17,47.17,0,0,0,11.3,32.4"/><path class="cls-2" d="M28.33,48.15a20.06,20.06,0,0,1-9.18-.36A10.58,10.58,0,0,1,12,42.88a11.42,11.42,0,0,1-1.24-8.4A105.39,105.39,0,0,1,0,33a27.8,27.8,0,0,0,55.6-.73A28.49,28.49,0,0,0,55,26.9C40.68,43,35.42,46.38,28.33,48.15"/><path class="cls-2" d="M31.68,24.3q.78-3.45-1.73-4c-1.67-.37-3.36.49-5.34,2.57-1.45,1.51-2.86,4.75-3.87,8h0l-.3.94c1-.13,1.61-.24,1.61-.24q8.23-1.11,9.63-7.21"/></g></g></g></g></svg>