<?xml version="1.0" encoding="utf-8"?>
<!-- Generator: Adobe Illustrator 21.1.0, SVG Export Plug-In . SVG Version: 6.00 Build 0)  -->
<svg version="1.1" id="Layer_1" xmlns="http://www.w3.org/2000/svg" xmlns:xlink="http://www.w3.org/1999/xlink" x="0px" y="0px"
	 viewBox="0 0 176 40" style="enable-background:new 0 0 176 40;" xml:space="preserve">
<style type="text/css">
	.st0{fill:#594A96;}
</style>
<g>
	<path class="st0" d="M173.6,3.3L173.6,3.3c0.4-0.1,0.6-0.4,0.6-0.7c0-0.3-0.1-0.5-0.3-0.7c-0.2-0.1-0.5-0.2-1-0.2
		c-0.5,0-0.9,0-1.2,0.1v3h0.7V3.6h0.3c0.4,0,0.6,0.1,0.6,0.5c0.1,0.3,0.1,0.6,0.2,0.7h0.8c-0.1-0.1-0.1-0.3-0.2-0.8
		C174.1,3.6,173.9,3.4,173.6,3.3z M172.8,3.1h-0.3V2.2c0.1,0,0.2,0,0.4,0c0.4,0,0.6,0.2,0.6,0.5C173.5,2.9,173.2,3.1,172.8,3.1z"/>
	<path class="st0" d="M172.9,0.2c-1.7,0-3.1,1.3-3.1,3c0,1.7,1.4,3,3.1,3c1.7,0,3.1-1.3,3.1-3C176,1.5,174.7,0.2,172.9,0.2z
		 M172.9,5.6c-1.4,0-2.3-1.1-2.3-2.4c0-1.3,1-2.4,2.3-2.4c1.3,0,2.3,1.1,2.3,2.4C175.2,4.5,174.3,5.6,172.9,5.6z"/>
	<path class="st0" d="M53.1,26c1.7,0,2.4-0.5,2.4-1.8c0-0.4-0.1-0.8-0.3-1.1c-0.1-0.2-0.3-0.3-0.5-0.4c-0.1-0.1-0.3-0.1-0.5-0.1
		c-0.2,0-0.5,0-0.9,0c-0.1,0-0.1,0-0.2,0c-0.1,0-0.2,0-0.3,0c-0.2,0-0.4,0-0.6,0V26c0.1,0,0.2,0,0.3,0C52.7,26,52.9,26,53.1,26z"/>
	<path class="st0" d="M40.3,29.2c0.1,0.1,0.2,0.1,0.3,0.2c0.1,0.1,0.3,0.1,0.4,0.2c0.1,0.1,0.3,0.1,0.4,0.1c0.3,0.1,0.5,0.1,0.8,0.1
		c1.8,0,3.1-1.5,3.1-3.5c0-1.2-0.4-2.3-1.2-3c-0.1-0.1-0.2-0.1-0.3-0.2c-0.1-0.1-0.2-0.1-0.3-0.2c-0.5-0.3-1-0.4-1.6-0.4
		c-0.7,0-1.4,0.2-1.9,0.6c-0.2,0.1-0.3,0.3-0.5,0.4c-0.2,0.2-0.4,0.5-0.5,0.8c-0.1,0.2-0.2,0.4-0.2,0.6c-0.1,0.3-0.1,0.7-0.1,1.1
		c0,1.1,0.4,2.1,1.1,2.8C40.1,28.9,40.2,29.1,40.3,29.2z"/>
	<polygon class="st0" points="57.3,11.5 56.9,10.5 55.4,14.3 58.3,14.3 	"/>
	<path class="st0" d="M46.3,17c1.4-0.1,2.1-0.7,2.1-1.7c0-0.1,0-0.3,0-0.4c0,0,0-0.1,0-0.1c-0.1-0.4-0.3-0.7-0.7-0.9
		c-0.1,0-0.1-0.1-0.2-0.1c-0.1-0.1-0.3-0.1-0.5-0.1c-0.1,0-0.2,0-0.3,0c-0.3,0-0.5,0-0.9,0h-1V17l1.3,0C46.1,17,46.2,17,46.3,17z"/>
	<path class="st0" d="M37,16.2c0.6-0.6,1-1.6,1-2.9c0-0.7-0.1-1.3-0.3-1.8c-0.2-0.5-0.5-0.9-0.9-1.2c-0.4-0.3-0.7-0.4-1.2-0.5
		c-0.3,0-0.7-0.1-1.1-0.1c-0.5,0-0.5,0-1.7,0.1V17h1.5C35.5,17,36.4,16.7,37,16.2z"/>
	<path class="st0" d="M12.7,22.8c-0.1,0-0.1-0.1-0.2-0.1c0,0,0,0-0.1,0c-0.1,0-0.2,0-0.2,0c-0.2,0-0.5,0-0.9,0c-0.3,0-0.6,0-1.1,0
		V26c0.1,0,0.2,0,0.3,0c0.2,0,0.4,0,0.6,0c1.6,0,2.3-0.5,2.4-1.6c0-0.1,0-0.1,0-0.2C13.5,23.5,13.2,23,12.7,22.8z"/>
	<path class="st0" d="M22.7,17.1c1.8,0,3.1-1.5,3.1-3.5c0-1.2-0.4-2.3-1.2-3c0,0,0,0,0,0c-0.6-0.5-1.3-0.8-2.1-0.8
		c-1.9,0-3.2,1.4-3.2,3.5c0,1.2,0.5,2.3,1.2,2.9C21.1,16.8,21.9,17.1,22.7,17.1z"/>
	<path class="st0" d="M46.7,12.7c0.1,0,0.2,0,0.2-0.1c0.1,0,0.2-0.1,0.3-0.2c0,0,0.1-0.1,0.1-0.1c0,0,0,0,0,0c0,0,0.1-0.1,0.1-0.2
		c0.1-0.1,0.2-0.3,0.2-0.5c0-0.1,0-0.1,0-0.2c0-0.1,0-0.1,0-0.2c0-0.1,0-0.3,0-0.4c-0.1-0.3-0.2-0.6-0.5-0.8c0,0-0.1,0-0.1-0.1
		C47,10,46.9,10,46.8,10c-0.1,0-0.2,0-0.3-0.1c-0.1,0-0.3,0-0.4,0c-0.1,0-0.2,0-0.2,0c-0.2,0-0.4,0-1.1,0v2.8h1
		C46.2,12.7,46.5,12.7,46.7,12.7z"/>
	<path class="st0" d="M0,40h39.1c2.2-0.2,4.3-0.8,5.9-2c2.9,2.2,7.2,2.5,10.5,0c3.1,2.3,7.4,2.3,10.5,0c3.1,2.3,7.4,2.3,10.5,0
		c0,0,1.5-2.1,2.2-3.2c-0.6,0.1-1.7-0.1-1.7-0.1s1.7-2.5,2.8-4c-0.6,0.2-2.1,0-2.1,0s2.6-4.1,3.8-6c0.1-0.2,0.3-0.5,0.3-0.5
		s0.2,0.3,0.3,0.5c1.2,1.9,3.8,6,3.8,6s-1.5,0.2-2.1,0c1.1,1.4,2.8,4,2.8,4s-1.1,0.1-1.7,0.1c0.3,0.5,0.7,1,1,1.5l3.3-0.7
		c0.3-0.5,1.1-1.4,1.5-1.9c-0.5,0.1-1.4,0-1.4,0s1.3-1.7,2.2-2.8c-0.5,0.1-1.7,0-1.7,0s2-3.3,3-4.8c0.1-0.2,0.3-0.4,0.3-0.4
		s0.2,0.2,0.3,0.4c0.9,1.5,3,4.8,3,4.8s-1.2,0.2-1.7,0c0.3,0.4,1.2,1.3,1.6,1.8l14.5-4.7l14.3-8.7c0,0,2.9-1.1,3.9-1.1
		c1,0,5.1-3.7,5.1-3.7l6.6,8.2l1,2.3l3.4,2.4l6.1,3.5l4,2.6l-1.8-4.2c0,0-2.5-2-2.7-2c-0.2,0-6.9-5.1-6.9-5.1l5.8,0.5l13,10.6
		l5.6,6.7h0.2V0H0V40z M152.9,8c2.7,0,4.9,2.2,4.9,4.9c0,2.7-2.2,4.9-4.9,4.9c-2.7,0-4.9-2.2-4.9-4.9C148,10.2,150.2,8,152.9,8z
		 M97.7,8.2L99.9,6h0.1l1,0.5l0,0l0,0.3l-2.7,1.6L98,8.3L97.7,8.2L97.7,8.2L97.7,8.2z M95.9,9.1L95.9,9.1l5.9,0v0h0V10h0v0h-4.5v2.8
		h4v0v0.9v0h-4v3.2h4.6v0.9h0h-6V9.1z M87.1,13.2L87.1,13.2l4.1-4.1h1.7l0,0h0l-4.2,3.8l4.4,4.9h0h-1.9L87.1,13.2L87.1,13.2z
		 M85.6,9.1L85.6,9.1H87h0v8.7h0h-1.4h0V9.1z M68.4,22.7h-3.6v7.8v0h-1.4v0v-7.8h-3.6v-0.9h8.6V22.7z M75.7,16.5
		C75.7,16.5,75.8,16.5,75.7,16.5C75.8,16.5,75.8,16.5,75.7,16.5l0.3-0.2c0.1,0,0.1,0,0.1,0c0,0,0,0,0.2,0.1c0.1,0,0.2,0.1,0.2,0.1
		c0.2,0.1,0.4,0.2,0.6,0.2c0.2,0.1,0.4,0.1,0.6,0.2c0.1,0,0.2,0,0.3,0.1c0.2,0,0.4,0.1,0.6,0.1c0.5,0,1-0.1,1.3-0.4
		c0.2-0.1,0.3-0.3,0.4-0.4c0,0,0-0.1,0.1-0.1c0.1-0.1,0.1-0.3,0.1-0.4c0-0.1,0-0.2,0-0.2c0-0.2-0.1-0.3-0.2-0.4
		c0-0.1-0.1-0.1-0.1-0.2c-0.2-0.2-0.5-0.4-1.1-0.7c-0.1,0-0.2-0.1-0.3-0.1c-0.1-0.1-0.3-0.1-0.4-0.2c-0.2-0.1-0.3-0.2-0.5-0.2
		c0,0-0.1,0-0.1-0.1c-0.1,0-0.1-0.1-0.2-0.1c-0.1,0-0.2-0.1-0.2-0.1c0,0-0.1,0-0.1-0.1c-0.1-0.1-0.2-0.1-0.2-0.2
		c-0.1-0.1-0.1-0.1-0.2-0.2c-0.1-0.1-0.1-0.1-0.2-0.2c-0.1-0.1-0.1-0.1-0.1-0.2c-0.2-0.3-0.3-0.6-0.3-0.9c0-0.1,0-0.1,0-0.2
		c0-0.7,0.3-1.2,0.7-1.6c0.3-0.2,0.6-0.4,1-0.6c0.5-0.2,1-0.3,1.6-0.3c0.4,0,0.9,0,1.3,0.1c0.2,0,0.4,0.1,0.6,0.1c0,0,0,0,0.1,0
		c0.1,0,0.1,0.1,0.1,0.2l0.1,0.8l0,0l0,0.1c0,0,0,0.1-0.1,0.1l-0.2,0.1c0,0-0.1,0-0.1,0h0c0,0,0,0-0.1,0c0,0-0.1,0-0.1-0.1
		c-0.3-0.2-0.8-0.4-1.3-0.5c-0.2,0-0.3,0-0.5,0c-0.1,0-0.3,0-0.4,0c-0.1,0-0.1,0-0.2,0c-0.1,0-0.2,0.1-0.3,0.1
		c-0.1,0.1-0.3,0.1-0.4,0.2c-0.3,0.2-0.5,0.6-0.5,1c0,0.3,0.1,0.5,0.2,0.7c0.1,0.1,0.1,0.1,0.2,0.2c0,0,0.1,0.1,0.1,0.1
		c0,0,0,0,0.1,0c0.1,0,0.1,0.1,0.2,0.1c0,0,0,0,0.1,0c0,0,0.1,0,0.1,0.1c0.1,0,0.2,0.1,0.3,0.1c0.2,0.1,0.4,0.2,0.7,0.3
		c0.4,0.2,0.8,0.3,1,0.5c0.1,0,0.1,0.1,0.2,0.1c0.1,0,0.1,0.1,0.2,0.1c0.2,0.1,0.3,0.2,0.5,0.4l0,0c0,0,0,0,0,0
		c0.1,0.1,0.2,0.2,0.3,0.3c0.2,0.3,0.4,0.8,0.4,1.2c0,0.5-0.1,0.9-0.4,1.3c0,0.1-0.1,0.1-0.2,0.2c-0.1,0.1-0.3,0.3-0.4,0.4
		c-0.1,0.1-0.2,0.1-0.2,0.2C80,17.8,79.3,18,78.4,18C78,18,77.5,18,77,17.9c-0.1,0-0.1,0-0.2,0c-0.3-0.1-0.6-0.1-0.8-0.2
		c0,0-0.1,0-0.1,0c-0.1,0-0.1-0.1-0.1-0.2L75.7,16.5C75.7,16.6,75.7,16.6,75.7,16.5C75.7,16.6,75.7,16.6,75.7,16.5L75.7,16.5z
		 M64.4,9.1h1l0,0h0l5.8,6.6L71,9.3l0-0.2v0h1.1v0l0,8.7L71.4,18l-6.1-6.9l0.2,6.8h0h-1.1h0L64.4,9.1z M56.6,9.1h1.1l1,2.5l2.5,6.3
		h0h-1.6h0L59,16.2l-0.4-1.1H55l-1.1,2.7h-1.3h0L56.6,9.1z M50.7,30.5v-8.7c0.1,0,0.2,0,0.3,0c0.2,0,0.5,0,0.8,0c0.1,0,0.3,0,0.4,0
		c0.1,0,0.1,0,0.2,0c0,0,0,0,0,0c0.1,0,0.2,0,0.4,0c0.3,0,0.6,0,0.7,0c1.2,0,1.9,0.1,2.4,0.4c0,0,0.1,0,0.1,0.1
		c0.1,0.1,0.2,0.1,0.3,0.2c0.1,0.1,0.2,0.2,0.3,0.3c0.3,0.4,0.5,0.9,0.5,1.4c0,1.1-0.6,1.9-1.9,2.4c0.5,1,1.4,2.2,1.9,2.8
		c0,0,0.1,0.1,0.1,0.1c0.3,0.3,0.7,0.5,1.2,0.5c0,0,0,0,0.1,0l0,0.1l-0.1,0.5c0,0,0,0.1-0.1,0.1c0,0-0.1,0-0.1,0c0,0-0.1,0-0.2,0
		c-0.1,0-0.1,0-0.2,0c-0.2,0-0.4,0-0.6-0.1c-0.2-0.1-0.4-0.1-0.6-0.2c-0.1-0.1-0.3-0.2-0.4-0.3c-0.5-0.4-1-1-1.6-2.1
		c-0.1-0.2-0.2-0.4-0.3-0.6c-0.1-0.1-0.1-0.2-0.2-0.4c0-0.1-0.1-0.1-0.1-0.2c-0.3,0-0.5,0.1-0.9,0.1h0c-0.1,0-0.3,0-0.4,0
		c-0.1,0-0.1,0-0.2,0v3.7h0v0L50.7,30.5L50.7,30.5z M25.4,30.5L25.4,30.5L25.4,30.5l-6,0v-8.7h0h5.9v0.9v0h-4.5v2.8h4v0h0v0.9h-4
		v3.2h4.6v0h0V30.5z M43.4,9.1L43.4,9.1c0.3,0,0.5,0,0.7,0c0,0,0.1,0,0.1,0c0.1,0,0.3,0,0.4,0c0.2,0,0.3,0,0.4,0c0.2,0,0.4,0,0.6,0
		c0.3,0,0.5,0,0.6,0c0.4,0,0.8,0,1.1,0.1c0,0,0.1,0,0.1,0c0.2,0,0.3,0.1,0.4,0.1c0.1,0,0.3,0.1,0.4,0.1c0.1,0,0.1,0.1,0.2,0.1
		c0,0,0.1,0,0.1,0.1c0.1,0.1,0.3,0.2,0.4,0.3c0.3,0.3,0.5,0.8,0.5,1.2c0,0.1,0,0.2,0,0.3c0,0.3-0.2,0.6-0.3,0.8
		c-0.1,0.1-0.1,0.1-0.2,0.2c-0.2,0.2-0.5,0.4-0.9,0.5c0.1,0,0.3,0,0.4,0.1c0.1,0,0.1,0,0.2,0.1c0.1,0,0.1,0,0.1,0.1
		c0.2,0.1,0.3,0.2,0.5,0.3c0.1,0.1,0.1,0.1,0.2,0.2c0.3,0.3,0.5,0.7,0.6,1.1c0,0.2,0.1,0.4,0.1,0.6v0c0,0.2,0,0.4-0.1,0.7
		c-0.1,0.2-0.1,0.4-0.3,0.6c-0.2,0.4-0.5,0.7-0.9,0.9c-0.2,0.1-0.3,0.2-0.5,0.2c-0.1,0-0.2,0.1-0.3,0.1c-0.3,0.1-0.7,0.1-1.1,0.2
		c-0.1,0-0.3,0-0.4,0c-0.1,0-0.3,0-0.5,0h0h-2.5V9.1z M44.9,22.3c0.2,0.2,0.5,0.3,0.7,0.5c0.8,0.8,1.3,1.9,1.3,3.2
		c0,2.5-1.8,4.4-4.4,4.7c-0.2,0-0.3,0-0.5,0c-0.3,0-0.6,0-0.8-0.1c-0.3-0.1-0.6-0.1-0.9-0.2c-0.4-0.1-0.7-0.3-1-0.5
		c-0.1,0-0.1-0.1-0.2-0.1c-0.6-0.5-1-1.1-1.3-1.8c-0.2-0.5-0.3-1.1-0.3-1.7v0c0-0.2,0-0.3,0-0.5c0-0.3,0.1-0.6,0.2-0.9
		c0.6-1.9,2.5-3.2,4.8-3.2C43.3,21.6,44.2,21.8,44.9,22.3z M31.3,9.1L31.3,9.1C32.6,9.1,33.4,9,34,9c0.1,0,0.1,0,0.1,0
		c0.1,0,0.3,0,0.4,0h0c0.7,0,1.3,0,1.7,0.1c0.1,0,0.3,0.1,0.4,0.1c0.1,0,0.3,0.1,0.4,0.1c0.1,0,0.2,0.1,0.4,0.2
		c0.1,0,0.1,0.1,0.2,0.1c0.2,0.1,0.3,0.2,0.5,0.3c0.3,0.2,0.5,0.5,0.7,0.8c0.3,0.4,0.5,1,0.6,1.5c0.1,0.3,0.1,0.7,0.1,1
		c0,0.5-0.1,1-0.2,1.4c-0.3,1-0.8,1.8-1.7,2.3c-0.7,0.5-1.6,0.7-2.8,0.8c-0.1,0-0.2,0-0.3,0c-0.2,0-0.4,0-0.6,0h-2.7V9.1z
		 M28.1,29.1l0.2-0.1c0.1,0,0.1,0,0.1,0c0,0,0,0,0,0c0,0,0,0,0,0c0,0,0,0,0,0c0,0,0,0,0.1,0c0.6,0.4,1.6,0.7,2.4,0.7
		c1.1,0,1.8-0.6,1.8-1.4c0-0.3-0.1-0.6-0.4-0.9c0,0-0.1-0.1-0.1-0.1c0,0,0,0,0,0c-0.1,0-0.1-0.1-0.2-0.1c0,0-0.1,0-0.1-0.1
		c0,0-0.1-0.1-0.2-0.1c-0.1-0.1-0.2-0.1-0.3-0.2c-0.2-0.1-0.3-0.2-0.6-0.2c-0.5-0.2-0.9-0.4-1.2-0.5c-0.2-0.1-0.3-0.2-0.4-0.2
		c0,0-0.1-0.1-0.1-0.1c0,0-0.1-0.1-0.1-0.1c-0.1,0-0.1-0.1-0.2-0.1c-0.1-0.1-0.2-0.3-0.3-0.4c0-0.1-0.1-0.1-0.1-0.2
		c-0.1-0.3-0.2-0.6-0.2-0.9c0-1.5,1.3-2.5,3.3-2.5c0.2,0,0.5,0,0.7,0c0.3,0,0.6,0.1,0.8,0.1c0.1,0,0.2,0.1,0.3,0.1c0,0,0,0,0.1,0
		c0,0,0.1,0.1,0.1,0.2l0.1,0.8l0,0.1c0,0,0,0.1-0.1,0.1l-0.2,0.1c0,0,0,0,0,0c0,0,0,0,0,0c0,0,0,0,0,0c0,0,0,0-0.1,0
		c0,0-0.1,0-0.1-0.1c-0.1-0.1-0.3-0.2-0.5-0.3c-0.4-0.2-0.9-0.3-1.3-0.3c-1,0-1.7,0.5-1.7,1.3c0,0.4,0.2,0.7,0.4,0.9
		c0.1,0.1,0.2,0.1,0.3,0.2c0.2,0.1,0.6,0.3,1.2,0.6c1.1,0.5,1.5,0.7,1.8,1.1c0.1,0.1,0.2,0.2,0.3,0.4c0.2,0.3,0.3,0.7,0.3,1.1
		c0,1.5-1.4,2.6-3.4,2.6c-0.4,0-0.9-0.1-1.4-0.1c-0.4-0.1-0.7-0.1-0.9-0.2c-0.2-0.1-0.2-0.1-0.2-0.2l-0.1-0.7l0-0.1c0,0,0,0,0,0
		C28.1,29.2,28.1,29.2,28.1,29.1C28.1,29.2,28.1,29.1,28.1,29.1z M22.8,8.9c1.4,0,2.5,0.5,3.3,1.3c0.8,0.8,1.3,1.9,1.3,3.2
		c0,0.8-0.2,1.6-0.6,2.3c-0.1,0.1-0.2,0.3-0.2,0.4c-0.4,0.6-1,1.1-1.7,1.5c-0.7,0.3-1.5,0.5-2.4,0.5c-0.3,0-0.6,0-0.8-0.1
		c-0.3,0-0.5-0.1-0.8-0.2c-0.2-0.1-0.4-0.1-0.6-0.2c-0.3-0.1-0.6-0.3-0.8-0.5c-1-0.8-1.7-2.2-1.7-3.5C17.8,10.9,19.9,8.9,22.8,8.9z
		 M15.1,29.4C15.1,29.4,15.1,29.4,15.1,29.4c0.3,0.3,0.7,0.5,1.2,0.5c0,0,0,0,0.1,0l0,0.1l-0.1,0.5c0,0,0,0,0,0c0,0,0,0,0,0
		c0,0-0.1,0-0.1,0c0,0-0.1,0-0.1,0c0,0-0.1,0-0.1,0c-0.1,0-0.1,0-0.2,0c-0.2,0-0.4,0-0.6-0.1c-0.2-0.1-0.5-0.1-0.7-0.2
		c-0.8-0.4-1.4-1.3-2.7-3.6c-0.3,0-0.5,0.1-0.9,0.1h0c-0.1,0-0.3,0-0.4,0c-0.1,0-0.1,0-0.2,0v3.7h0v0H8.8v-8.7c0.3,0,0.7,0,1.1,0
		c0.1,0,0.3,0,0.4,0c0.1,0,0.1,0,0.2,0c0,0,0,0,0,0c0.1,0,0.2,0,0.4,0c0.3,0,0.6,0,0.7,0c1.2,0,1.9,0.1,2.4,0.4
		c0.2,0.1,0.4,0.3,0.6,0.5c0,0,0.1,0.1,0.1,0.1c0.1,0.1,0.1,0.2,0.2,0.3c0.1,0.3,0.2,0.7,0.2,1c0,1.1-0.6,1.9-1.9,2.4
		C13.6,27.6,14.5,28.9,15.1,29.4z M8.8,9.1L8.8,9.1c1.7,0,2.6-0.1,2.7-0.1c0.4,0,0.8,0,1.1,0.1c0,0,0.1,0,0.1,0
		c0.2,0,0.3,0.1,0.5,0.1c0.1,0,0.3,0.1,0.4,0.1c0.1,0,0.2,0.1,0.2,0.1c0,0,0.1,0,0.1,0.1c0.5,0.3,0.9,0.9,1.1,1.5
		c0.1,0.2,0.1,0.4,0.1,0.7c0,0.1,0,0.2,0,0.4c-0.1,0.8-0.5,1.5-1.2,1.9c-0.3,0.2-0.7,0.3-1.2,0.4c-0.4,0.1-0.9,0.1-1.4,0.1
		c-0.4,0-0.4,0-0.9,0v3.4h0H8.8V9.1z"/>
	<path class="st0" d="M12.9,13.2c0.4-0.3,0.6-0.8,0.6-1.5c0-0.6-0.2-1-0.5-1.3c0,0,0,0,0,0c-0.1-0.1-0.2-0.2-0.3-0.2
		C12.4,10,12,9.9,11.5,9.9c-0.1,0-0.2,0-0.2,0c-0.1,0-0.1,0-0.2,0c0,0-0.1,0-0.1,0c-0.2,0-0.5,0-0.7,0v3.7c0.4,0,0.6,0,0.9,0
		C11.9,13.6,12.5,13.5,12.9,13.2z"/>
</g>
</svg>
