<svg xmlns:xlink="http://www.w3.org/1999/xlink" id="Layer_1" data-name="Layer 1" xmlns="http://www.w3.org/2000/svg" viewBox="0 0 1291.89 323.77" width="1291.89"  height="323.77" ><defs><linearGradient id="linear-gradient" x1="144.17" y1=".87" x2="144.17" y2="313.64" gradientUnits="userSpaceOnUse"><stop offset="0" stop-color="#ff6027"></stop><stop offset=".44" stop-color="#ff3823"></stop><stop offset=".79" stop-color="#ff1f21"></stop><stop offset="1" stop-color="#ff1620"></stop></linearGradient><linearGradient id="linear-gradient-2" x1="45" y1="62.19" x2="22.94" y2="100.9" gradientUnits="userSpaceOnUse"><stop offset="0" stop-color="#1d1d1b" stop-opacity=".5"></stop><stop offset="1" stop-color="#1d1d1b" stop-opacity="0"></stop></linearGradient><linearGradient id="linear-gradient-3" x1="133.61" y1="217.12" x2="114.04" y2="251.13" xlink:href="#linear-gradient-2"></linearGradient><linearGradient id="linear-gradient-4" x1="72.6" y1="286.61" x2="11.99" y2="208.22" gradientUnits="userSpaceOnUse"><stop offset="0" stop-color="#ff400c" stop-opacity="0"></stop><stop offset=".1" stop-color="#ff4a0b" stop-opacity=".12"></stop><stop offset=".35" stop-color="#ff6307" stop-opacity=".43"></stop><stop offset=".58" stop-color="#fe7704" stop-opacity=".68"></stop><stop offset=".77" stop-color="#fe8602" stop-opacity=".85"></stop><stop offset=".91" stop-color="#fe8f00" stop-opacity=".96"></stop><stop offset="1" stop-color="#fe9200"></stop></linearGradient><linearGradient id="linear-gradient-5" x1="-.66" y1="163.73" x2="212.62" y2="163.73" xlink:href="#linear-gradient-4"></linearGradient><linearGradient id="linear-gradient-6" x1="213.13" y1="223.65" x2="81.9" y2="-11.51" xlink:href="#linear-gradient-4"></linearGradient><linearGradient id="linear-gradient" x1="144.17" y1=".87" x2="144.17" y2="313.64" gradientUnits="userSpaceOnUse"><stop offset="0" stop-color="#ff6027"></stop><stop offset=".44" stop-color="#ff3823"></stop><stop offset=".79" stop-color="#ff1f21"></stop><stop offset="1" stop-color="#ff1620"></stop></linearGradient><linearGradient id="linear-gradient-2" x1="45" y1="62.19" x2="22.94" y2="100.9" gradientUnits="userSpaceOnUse"><stop offset="0" stop-color="#1d1d1b" stop-opacity=".5"></stop><stop offset="1" stop-color="#1d1d1b" stop-opacity="0"></stop></linearGradient><linearGradient id="linear-gradient-3" x1="133.61" y1="217.12" x2="114.04" y2="251.13" xlink:href="#linear-gradient-2"></linearGradient><linearGradient id="linear-gradient-4" x1="72.6" y1="286.61" x2="11.99" y2="208.22" gradientUnits="userSpaceOnUse"><stop offset="0" stop-color="#ff400c" stop-opacity="0"></stop><stop offset=".1" stop-color="#ff4a0b" stop-opacity=".12"></stop><stop offset=".35" stop-color="#ff6307" stop-opacity=".43"></stop><stop offset=".58" stop-color="#fe7704" stop-opacity=".68"></stop><stop offset=".77" stop-color="#fe8602" stop-opacity=".85"></stop><stop offset=".91" stop-color="#fe8f00" stop-opacity=".96"></stop><stop offset="1" stop-color="#fe9200"></stop></linearGradient><linearGradient id="linear-gradient-5" x1="-.66" y1="163.73" x2="212.62" y2="163.73" xlink:href="#linear-gradient-4"></linearGradient><linearGradient id="linear-gradient-6" x1="213.13" y1="223.65" x2="81.9" y2="-11.51" xlink:href="#linear-gradient-4"></linearGradient></defs><path d="M273.3 187.75a28.5 28.5 0 0 1-28.47 0L81.36 93.36a14.66 14.66 0 0 0-22 12.71 14.68 14.68 0 0 0 7.33 12.68l135.15 78a18.6 18.6 0 0 1 0 32.21l-156.7 90.51A30.1 30.1 0 0 1 0 293.4v-84a15.44 15.44 0 0 1 23.16-13.38l51.19 29.55a14.65 14.65 0 0 0 14.66 0 14.65 14.65 0 0 0 0-25.38l-74.48-43A29 29 0 0 1 0 132.09V29.93C0 6.76 25.07-7.7 45.14 3.87L273.3 135.62c20.07 11.56 20.07 40.53 0 52.13Z" fill="url(&quot;#linear-gradient&quot;)"></path><path d="M59.36 106.08a14.93 14.93 0 0 0 2 7.33 14.78 14.78 0 0 0 5.37 5.34L0 80.28V46.42l81.25 46.89a14.65 14.65 0 0 0-21.89 12.77Z" fill="url(&quot;#linear-gradient-2&quot;)"></path><path d="M170.33 247.18 141 264.09l-66.33-38.28a14.75 14.75 0 0 0 14.34-.2 14.69 14.69 0 0 0 .23-25.25Z" fill="url(&quot;#linear-gradient-3&quot;)"></path><path d="m141 264.09-95.84 55.39A30.1 30.1 0 0 1 0 293.41v-84a15.43 15.43 0 0 1 23.13-13.36l51.18 29.55.36.2Z" fill="url(&quot;#linear-gradient-4&quot;)"></path><path d="m201.83 229-31.5 18.18-81.09-46.82c-.07-.06-.17-.09-.26-.16l-74.48-43A29 29 0 0 1 0 132.08v-51.8l66.69 38.47 135.14 78a18.59 18.59 0 0 1 0 32.25Z" fill="url(&quot;#linear-gradient-5&quot;)"></path><path d="M273.31 187.76a28.4 28.4 0 0 1-28.47 0L81.35 93.37s-.06 0-.1-.06L0 46.42V29.94C0 6.77 25.09-7.69 45.16 3.88l228.15 131.75c20.07 11.56 20.07 40.53 0 52.13Z" fill="url(&quot;#linear-gradient-6&quot;)"></path><path fill="#000" class="cls-7" d="M368.65 223.22q-13.78-4.2-21.82-11.14l8.22-18.44a64.43 64.43 0 0 0 19.26 10.13 70 70 0 0 0 22.92 3.93q14.25 0 21.28-4.57t7-12a11.66 11.66 0 0 0-3.93-9 27.62 27.62 0 0 0-9.95-5.57q-6-2-16.44-4.57a192 192 0 0 1-23.62-6.99 39 39 0 0 1-15.52-10.87q-6.48-7.4-6.48-20a34.12 34.12 0 0 1 5.75-19.26q5.76-8.69 17.35-13.79t28.4-5.12a91.65 91.65 0 0 1 23 2.93 63.46 63.46 0 0 1 19.54 8.4l-7.49 18.44a73.92 73.92 0 0 0-17.53-7.49 65.74 65.74 0 0 0-17.71-2.55q-14.07 0-20.92 4.75T373.13 133a11.4 11.4 0 0 0 3.92 9 28.3 28.3 0 0 0 10 5.47q6 2 16.43 4.57a171.9 171.9 0 0 1 23.38 6.85 40.1 40.1 0 0 1 15.61 10.86q6.48 7.31 6.48 19.73a33.62 33.62 0 0 1-5.75 19.17q-5.75 8.59-17.44 13.7t-28.49 5.11a97.53 97.53 0 0 1-28.62-4.24ZM586.06 97.76v127.83h-23.74v-54.78h-66.11v54.78h-23.74V97.76h23.74v52.78h66.11V97.76ZM806.3 97.76l-42.37 127.83h-25.2L707.14 131 675 225.59h-25.39L607.25 97.76h24.65l31.78 97.16 33.05-97.16h21.91l32.36 97.7 32.69-97.7ZM825.66 97.76h55.88q20.44 0 36.34 7.94a58.9 58.9 0 0 1 24.66 22.47q8.76 14.52 8.76 33.51t-8.76 33.51a58.87 58.87 0 0 1-24.66 22.46q-15.89 7.95-36.34 7.94h-55.88Zm54.79 107.75q14.06 0 24.74-5.39a38.56 38.56 0 0 0 16.44-15.34 45.41 45.41 0 0 0 5.75-23.1 45.36 45.36 0 0 0-5.75-23.1 38.56 38.56 0 0 0-16.44-15.34q-10.68-5.38-24.74-5.39H849.4v87.66ZM1159.3 97.76l-42.36 127.83h-25.2l-31.6-94.59-32.14 94.59h-25.38L960.25 97.76h24.65l31.78 97.16 33.05-97.16h21.92l32.32 97.7 32.69-97.7ZM1292.25 97.76v127.83h-19.54L1202.22 139v86.56h-23.56V97.76h19.54l70.49 86.56V97.76Z"></path></svg>