<svg width="100" height="19" viewBox="0 0 100 19" xmlns="http://www.w3.org/2000/svg" class="Logo__StyledLogo-uchl37-0 fhSIwK"><g fill="#000" fill-rule="evenodd"><path d="M100 18.602H87.581V.205H100v3.682h-8.793V7.57h5.95v3.682h-5.95v3.67H100v3.681zm-20.28-1.86a9.267 9.267 0 0 1-2.818 1.674 9.122 9.122 0 0 1-3.234.584 9.02 9.02 0 0 1-2.482-.34 9.206 9.206 0 0 1-2.23-.962 9.683 9.683 0 0 1-1.895-1.488 9.25 9.25 0 0 1-1.466-1.925 9.76 9.76 0 0 1-.94-2.277 9.498 9.498 0 0 1-.336-2.527c0-.873.112-1.71.335-2.515a9.817 9.817 0 0 1 .941-2.264 9.25 9.25 0 0 1 1.466-1.924A9.36 9.36 0 0 1 71.186.34 9.02 9.02 0 0 1 73.668 0c1.12 0 2.198.195 3.234.584a9.267 9.267 0 0 1 2.818 1.674l-1.895 3.207a6.08 6.08 0 0 0-1.895-1.328 5.47 5.47 0 0 0-2.262-.48c-.792 0-1.535.153-2.23.461a5.934 5.934 0 0 0-1.825 1.251 5.9 5.9 0 0 0-1.238 1.847 5.674 5.674 0 0 0-.455 2.265c0 .812.152 1.573.455 2.283a5.88 5.88 0 0 0 3.064 3.117 5.442 5.442 0 0 0 2.23.463c.454 0 .896-.056 1.326-.167.43-.111.838-.265 1.225-.462V9.481h3.5v7.261zm-32.232 1.86h-3.626V.205h7.252c.665 0 1.306.088 1.92.263.615.176 1.19.424 1.725.744.535.321 1.023.706 1.465 1.155.442.449.821.947 1.137 1.495.316.547.56 1.133.733 1.757.173.625.259 1.275.259 1.95 0 .633-.078 1.249-.234 1.848a7.63 7.63 0 0 1-.67 1.706 7.252 7.252 0 0 1-2.482 2.668l2.009 4.811h-3.853l-1.58-3.707-4.055.025v3.682zm0-14.715v7.364h3.626c.497 0 .964-.096 1.402-.288A3.668 3.668 0 0 0 54.443 9c.19-.45.284-.926.284-1.43a3.71 3.71 0 0 0-1.061-2.604 3.668 3.668 0 0 0-1.15-.79 3.447 3.447 0 0 0-1.402-.289h-3.626zm-11.264 7.364c0 1.018-.19 1.974-.569 2.868a7.364 7.364 0 0 1-1.554 2.334 7.369 7.369 0 0 1-2.305 1.572 6.97 6.97 0 0 1-2.824.577 6.97 6.97 0 0 1-2.823-.577 7.293 7.293 0 0 1-2.3-1.572 7.418 7.418 0 0 1-1.547-2.334 7.268 7.268 0 0 1-.569-2.868V.205h3.613v11.046c0 .505.095.98.285 1.424a3.648 3.648 0 0 0 1.933 1.956c.442.193.911.29 1.408.29.497 0 .967-.097 1.409-.29a3.648 3.648 0 0 0 1.933-1.956c.19-.445.284-.92.284-1.424V.205h3.626v11.046zM0 5.721c0-.763.144-1.48.43-2.148A5.563 5.563 0 0 1 3.332.627 5.168 5.168 0 0 1 5.45.188h8.337V3.88H5.448a1.778 1.778 0 0 0-1.286.534 1.827 1.827 0 0 0-.526 1.306c0 .258.047.5.14.727a1.795 1.795 0 0 0 1.672 1.126h3.637c.751 0 1.459.144 2.122.431a5.454 5.454 0 0 1 2.901 2.947c.283.673.425 1.391.425 2.155 0 .763-.142 1.48-.425 2.148a5.567 5.567 0 0 1-1.165 1.757 5.542 5.542 0 0 1-1.736 1.19 5.213 5.213 0 0 1-2.122.437H1.014v-3.692h8.07a1.778 1.778 0 0 0 1.287-.534 1.827 1.827 0 0 0 .525-1.306 1.855 1.855 0 0 0-.525-1.306 1.795 1.795 0 0 0-1.286-.534H5.448a5.168 5.168 0 0 1-2.116-.438A5.563 5.563 0 0 1 .431 7.877 5.435 5.435 0 0 1 0 5.72z"></path></g></svg>