<?xml version="1.0" encoding="utf-8"?>
<!-- Generator: Adobe Illustrator 22.0.1, SVG Export Plug-In . SVG Version: 6.00 Build 0)  -->
<svg version="1.1" id="Vrstva_1" xmlns="http://www.w3.org/2000/svg" xmlns:xlink="http://www.w3.org/1999/xlink" x="0px" y="0px"
	 viewBox="0 0 256.7 39.7" style="enable-background:new 0 0 256.7 39.7;" xml:space="preserve">
<style type="text/css">
	.st0{fill:#EA5B0C;}
	.st1{fill:#9D9D9C;}
</style>
<g>
	<path class="st0" d="M75.2,0.3l-17.1,12l-5.6-3.9c-6.5-4.6-14.2-7-22.2-7C18.5,1.4,7.3,6.8,0,15.9c7.3,9.1,18.5,14.5,30.3,14.5
		c8,0,15.6-2.4,22.2-7l3.6-2.5l-5.1-3.6l-1.9,1.3c-5.5,3.9-12,5.9-18.8,5.9c-8.3,0-16.2-3.1-22.2-8.6c6-5.5,13.9-8.6,22.2-8.6
		c6.7,0,13.2,2.1,18.8,5.9l26.1,18.3v-7.2l-12-8.4l12-8.4V0.3z"/>
	<path d="M124.6,0.1h-2.9c-5.8,0-9.6,1.9-9.6,8.9v21.6c0,0.5,0.3,0.8,0.8,0.8h4.2c0.5,0,0.8-0.4,0.8-0.8V19.6h10.5v11.1
		c0,0.5,0.3,0.8,0.8,0.8h4.2c0.5,0,0.8-0.4,0.8-0.8V9.1C134.2,2,130.4,0.1,124.6,0.1z M128.4,14.7h-10.5V9.1c0-2.9,0.8-3.9,3.8-3.9
		h2.9c3,0,3.8,0.9,3.8,3.9V14.7z"/>
	<path d="M157.1,0.7c-0.6-0.2-3.4-0.7-6.6-0.7c-5,0-11.9,2.3-11.9,12.8V19c0,10.4,6.8,12.8,11.9,12.8c3.2,0,6-0.5,6.6-0.7
		c0.5-0.2,0.9-0.4,0.9-1v-2.8c0-0.5-0.2-0.9-0.8-0.9c0,0,0,0-0.1,0c-1.5,0.1-4.3,0.3-6.5,0.3c-3.5,0-6.1-2-6.1-7.8v-6.2
		c0-6,2.6-7.8,6.1-7.8c2.2,0,5.1,0.2,6.5,0.3c0,0,0.1,0,0.1,0c0.6,0,0.8-0.4,0.8-0.9V1.6C158,1,157.6,0.8,157.1,0.7z"/>
	<path d="M107.2,26.4H94.3c-0.3,0-0.4-0.1-0.4-0.3c0-0.1,0-0.3,0.2-0.5l13.1-19.6c0.3-0.5,0.6-1.1,0.6-1.7V1.9c0-1.1-1-1.6-2.2-1.6
		H88.7c-0.5,0-0.8,0.3-0.8,0.8v3.5c0,0.5,0.3,0.8,0.8,0.8h11.7c0.3,0,0.4,0.1,0.4,0.3c0,0.1,0,0.3-0.1,0.4L87.3,26.1
		c-0.4,0.6-0.5,1.1-0.5,1.6V30c0,1.1,0.9,1.6,2.1,1.6h18.3c0.5,0,0.8-0.4,0.8-0.8v-3.5C108.1,26.7,107.7,26.4,107.2,26.4z"/>
	<path d="M184.7,0.3h-4.2c-0.5,0-0.8,0.3-0.8,0.8v11.6h-11.9V1.1c0-0.5-0.4-0.8-0.8-0.8h-4.2c-0.5,0-0.8,0.3-0.8,0.8v29.5
		c0,0.5,0.4,0.8,0.8,0.8h4.2c0.5,0,0.8-0.4,0.8-0.8V17.8h11.9v12.8c0,0.5,0.4,0.8,0.8,0.8h4.2c0.5,0,0.8-0.4,0.8-0.8V1.1
		C185.6,0.7,185.2,0.3,184.7,0.3z"/>
	<path d="M221.1,0.3h-4.4c-0.4,0-0.7,0.4-0.7,0.8v25.8c0,3.5,0,4.2-1.5,7l-2.3,4.6c-0.1,0.3-0.2,0.5-0.2,0.7c0,0.3,0.2,0.5,0.5,0.5
		h4.2c0.6,0,0.8-0.2,1.3-1l2-3.6c1.6-2.8,1.8-4.7,1.8-8.2V1.1C221.9,0.7,221.6,0.3,221.1,0.3z"/>
	<path d="M208.5,0.6c-1.3-0.2-3-0.6-8-0.6c-5.5,0-9.7,1.5-9.7,8.6v14.6c0,7.1,4.2,8.6,9.7,8.6c5,0,6.6-0.4,8-0.6
		c0.6-0.1,0.8-0.3,0.8-0.9v-2.7c0-0.5-0.4-0.8-0.8-0.8h-8.6c-2.4,0-3.3-0.8-3.3-3.6v-5.4H208c0.5,0,0.8-0.4,0.8-0.8v-3
		c0-0.5-0.4-0.8-0.8-0.8h-11.4V8.6c0-2.8,0.9-3.6,3.3-3.6h8.6c0.5,0,0.8-0.4,0.8-0.8V1.5C209.3,0.9,209.1,0.7,208.5,0.6z"/>
	<g>
		<path class="st1" d="M228.4,31.6h-2.2c-0.3,0-0.5-0.2-0.5-0.5v-2.8c0-0.3,0.2-0.5,0.5-0.5h2.2c0.3,0,0.5,0.2,0.5,0.5v2.8
			C228.9,31.4,228.7,31.6,228.4,31.6z"/>
		<path class="st1" d="M237.7,31.8c-1,0-3.1-0.1-4.5-0.5c-0.3-0.1-0.5-0.3-0.5-0.6v-1.5c0-0.2,0.2-0.4,0.4-0.4c0,0,0.1,0,0.1,0
			c1.2,0.2,3.4,0.3,4.2,0.3c1.5,0,1.8-0.5,1.8-1.2c0-0.5-0.3-0.8-1.1-1.3l-3.4-2.1c-1.2-0.8-2.1-2-2.1-3.4c0-2.5,1.6-3.7,4.7-3.7
			c2,0,3.2,0.2,4.4,0.5c0.3,0.1,0.5,0.3,0.5,0.6v1.4c0,0.3-0.2,0.5-0.4,0.5c0,0-0.1,0-0.1,0c-0.7-0.1-2.7-0.3-4.1-0.3
			c-1.2,0-1.7,0.3-1.7,1c0,0.4,0.4,0.7,1,1l3.3,2c2.1,1.3,2.4,2.5,2.4,3.8C242.6,30.1,241,31.8,237.7,31.8z"/>
		<path class="st1" d="M256.3,31.6h-3c-0.3,0-0.6-0.3-0.7-0.5l-3.9-5.7v5.7c0,0.3-0.2,0.5-0.5,0.5h-2.3c-0.3,0-0.5-0.3-0.5-0.5v-18
			c0-0.3,0.2-0.5,0.5-0.5h2.3c0.3,0,0.5,0.2,0.5,0.5v10.4l4.3-5.7c0.2-0.2,0.4-0.3,0.6-0.3h2.8c0.3,0,0.4,0.1,0.4,0.3
			c0,0.1,0,0.2-0.1,0.3l-5,6.2l5.1,6.9c0,0.1,0.1,0.1,0.1,0.2C256.7,31.5,256.5,31.6,256.3,31.6z"/>
	</g>
	<g>
		<path d="M230,0.3c2.3,0,4.3,1.8,4.3,4.2c0,2.4-1.9,4.3-4.3,4.3c-2.3,0-4.3-1.8-4.3-4.3C225.7,2.2,227.7,0.3,230,0.3z M230,8.2
			c2,0,3.5-1.6,3.5-3.6c0-2-1.5-3.6-3.5-3.6c-2,0-3.5,1.6-3.5,3.6C226.5,6.6,228,8.2,230,8.2z M228.3,2.1h1.9c1.2,0,1.7,0.5,1.7,1.4
			c0,0.9-0.6,1.3-1.3,1.4l1.4,2.2h-0.8l-1.4-2.1h-0.8v2.1h-0.8V2.1z M229.1,4.3h0.8c0.7,0,1.3,0,1.3-0.8c0-0.7-0.6-0.8-1.1-0.8h-1
			V4.3z"/>
	</g>
</g>
</svg>
